#define close_width 12
#define close_height 12
static unsigned char close_bits[] = {
   0x01, 0x08, 0x03, 0x0c, 0x06, 0x06, 0x0c, 0x03, 0x98, 0x01, 0xf0, 0x00,
   0xf0, 0x00, 0x98, 0x01, 0x0c, 0x03, 0x06, 0x06, 0x03, 0x0c, 0x01, 0x08 };
