#define desk_toggled_width 12
#define desk_toggled_height 12
static unsigned char desk_toggled_bits[] = {
   0xff, 0x0f, 0x21, 0x08, 0x21, 0x08, 0x21, 0x08, 0x21, 0x08, 0x3f, 0x08,
   0xc1, 0x0f, 0x41, 0x08, 0x41, 0x08, 0x41, 0x08, 0x41, 0x08, 0xff, 0x0f };
