#define desk_width 12
#define desk_height 12
static unsigned char desk_bits[] = {
   0x3f, 0x00, 0x21, 0x00, 0x21, 0x00, 0x21, 0x00, 0x21, 0x00, 0x3f, 0x00,
   0xc0, 0x0f, 0x40, 0x08, 0x40, 0x08, 0x40, 0x08, 0x40, 0x08, 0xc0, 0x0f };
