#define shade_width 12
#define shade_height 12
static unsigned char shade_bits[] = {
   0x60, 0x00, 0xf0, 0x00, 0xf8, 0x01, 0x6c, 0x03, 0x66, 0x06, 0x62, 0x04,
   0x60, 0x00, 0x60, 0x00, 0x60, 0x00, 0x60, 0x00, 0x60, 0x00, 0x60, 0x00 };
